<?xml version="1.0" standalone="no"?>
<!DOCTYPE svg PUBLIC "-//W3C//DTD SVG 20010904//EN"
 "http://www.w3.org/TR/2001/REC-SVG-20010904/DTD/svg10.dtd">
<svg version="1.0" xmlns="http://www.w3.org/2000/svg"
 width="2000.000000pt" height="2000.000000pt" viewBox="0 0 2000.000000 2000.000000"
 preserveAspectRatio="xMidYMid meet">

<g transform="translate(0.000000,2000.000000) scale(0.100000,-0.100000)"
fill="#000000" stroke="none">
<path d="M9610 15869 c-869 -50 -1787 -330 -2568 -783 -164 -95 -472 -299
-602 -399 -372 -286 -788 -690 -1040 -1012 -30 -39 -57 -72 -61 -75 -16 -13
-159 -214 -257 -361 -504 -756 -837 -1650 -941 -2524 -39 -324 -43 -402 -44
-710 0 -317 8 -449 44 -729 119 -942 495 -1904 1039 -2661 223 -310 380 -496
640 -755 398 -399 840 -737 1275 -975 28 -15 68 -37 90 -50 149 -84 422 -212
630 -295 72 -28 150 -60 175 -70 104 -42 443 -143 635 -189 326 -79 674 -130
1030 -152 307 -18 829 -3 1045 30 36 6 106 15 155 22 134 17 422 75 595 118
114 29 456 134 555 170 357 130 784 338 1100 535 446 277 749 525 1160 947
822 843 1371 1942 1564 3129 114 700 99 1402 -45 2088 -172 820 -487 1536
-997 2265 -208 297 -662 794 -922 1008 -49 41 -92 77 -95 80 -16 18 -225 178
-340 260 -562 401 -1143 681 -1810 874 -630 182 -1310 254 -2010 214z m825
-49 c1251 -83 2489 -607 3445 -1456 129 -114 449 -437 556 -559 560 -643 991
-1454 1217 -2285 60 -222 116 -486 138 -650 6 -46 12 -87 15 -91 2 -4 15 -139
29 -300 26 -313 32 -584 15 -774 -5 -60 -14 -171 -20 -245 -78 -989 -479
-2051 -1089 -2880 -313 -426 -695 -828 -1066 -1121 -38 -30 -101 -80 -140
-110 -92 -73 -404 -280 -579 -386 -178 -107 -557 -295 -751 -371 -481 -191
-955 -314 -1468 -382 -254 -34 -458 -43 -847 -37 -389 5 -588 23 -928 82 -711
124 -1449 410 -2071 802 -336 212 -649 457 -914 713 -264 255 -418 421 -556
600 -254 331 -331 442 -494 720 -503 859 -776 1867 -781 2875 -1 221 1 275 25
575 30 399 153 972 287 1345 247 686 542 1218 976 1760 539 672 1231 1225
2014 1606 101 49 185 89 188 89 3 0 38 14 77 32 383 169 859 306 1342 386 167
28 415 58 545 65 138 8 700 6 835 -3z"/>
<path d="M9923 15313 l-53 -4 0 -318 0 -318 61 -7 c195 -20 291 17 324 126 24
83 -12 173 -79 194 -47 15 -48 24 -5 71 41 44 41 46 37 108 -4 72 -19 95 -82
127 -41 21 -113 29 -203 21z m158 -44 c30 -15 59 -69 59 -108 0 -19 -11 -53
-25 -77 -27 -46 -62 -64 -126 -64 l-39 0 0 129 c0 94 3 131 13 135 17 8 94 -2
118 -15z m47 -309 c42 -26 55 -61 50 -133 -4 -49 -9 -63 -35 -89 -26 -26 -42
-32 -87 -36 -30 -2 -67 -2 -81 2 l-25 6 0 135 0 135 73 0 c54 0 80 -5 105 -20z"/>
<path d="M10390 15291 c0 -6 4 -11 8 -11 5 0 14 -10 20 -22 7 -13 21 -39 32
-58 11 -19 47 -85 80 -147 68 -127 69 -131 43 -300 -9 -62 -14 -115 -11 -118
3 -3 21 -8 41 -12 l35 -5 6 43 c3 24 10 89 17 144 6 55 16 109 22 120 12 24
163 194 224 252 46 44 49 63 9 63 -17 0 -53 -33 -136 -126 -61 -69 -117 -123
-123 -121 -18 6 -128 207 -134 244 -3 18 -11 37 -17 42 -18 14 -116 25 -116
12z"/>
<path d="M9155 15246 c-17 -7 -45 -30 -64 -51 -31 -35 -33 -42 -29 -95 5 -73
41 -124 127 -182 123 -82 161 -126 161 -186 0 -59 -87 -110 -141 -82 -13 7
-36 24 -52 38 -35 33 -55 19 -41 -30 20 -71 137 -87 230 -33 57 33 78 78 72
151 -6 64 -30 96 -142 181 -124 94 -151 125 -149 175 2 52 27 78 81 85 31 4
47 1 70 -16 17 -11 35 -21 40 -21 14 0 -3 61 -20 72 -20 12 -110 9 -143 -6z"/>
<path d="M8770 15163 c-46 -20 -46 -20 -28 -40 23 -26 80 -225 68 -237 -9 -9
-102 -35 -254 -72 -54 -13 -70 -14 -76 -4 -4 7 -20 65 -35 129 -30 128 -39
145 -64 132 -56 -32 -55 -26 -16 -158 21 -67 58 -202 84 -300 41 -159 48 -178
68 -181 12 -2 31 1 41 7 23 12 20 33 -27 188 -17 56 -31 106 -31 111 0 5 73
28 162 51 142 37 164 40 173 27 6 -8 24 -70 40 -138 15 -68 31 -126 34 -130
10 -11 81 11 81 25 0 7 -7 35 -16 62 -60 197 -116 401 -134 488 -12 61 -16 63
-70 40z"/>
<path d="M11528 15083 c-13 -16 -146 -257 -264 -481 -38 -72 -39 -74 -19 -88
33 -24 33 -24 89 96 43 93 158 306 173 321 13 13 19 -11 28 -111 8 -88 56
-434 61 -439 6 -6 73 48 199 163 155 141 236 208 243 202 2 -3 0 -12 -7 -20
-6 -8 -16 -43 -22 -78 -6 -34 -26 -127 -45 -204 -18 -78 -34 -148 -34 -157 0
-22 28 -47 53 -47 21 0 26 17 79 273 66 308 75 367 61 367 -18 0 -127 -90
-302 -250 -58 -52 -116 -105 -130 -118 -23 -21 -26 -22 -31 -5 -4 10 -17 97
-29 193 -29 226 -56 370 -74 387 -11 12 -16 11 -29 -4z"/>
<path d="M8125 14970 c-11 -5 -76 -32 -145 -60 -332 -137 -301 -122 -295 -154
3 -16 7 -31 8 -33 2 -2 42 19 88 47 86 51 113 59 122 38 3 -7 22 -51 42 -98
20 -47 68 -161 106 -255 38 -93 74 -171 81 -173 7 -1 28 7 46 18 l32 20 -29
52 c-17 29 -71 150 -121 268 -105 247 -107 226 27 261 86 23 105 37 83 64 -14
17 -17 17 -45 5z"/>
<path d="M7339 14618 c-3 -30 3 -149 11 -228 9 -84 35 -337 46 -436 5 -47 7
-51 29 -46 36 6 47 25 35 56 -5 15 -13 64 -16 110 l-7 82 116 67 c64 37 119
67 122 67 12 0 101 -63 137 -98 l38 -36 45 22 c25 12 45 25 45 30 0 5 -15 16
-32 25 -18 9 -76 48 -128 87 -52 39 -138 101 -190 137 -52 37 -127 91 -166
120 -75 56 -83 60 -85 41z m186 -212 c89 -65 105 -80 94 -91 -30 -29 -182
-116 -190 -108 -7 8 -29 198 -29 256 0 16 4 27 9 25 6 -1 58 -38 116 -82z"/>
<path d="M12475 14509 c-82 -60 -185 -135 -228 -167 -43 -31 -103 -73 -133
-92 l-56 -34 27 -23 26 -23 61 47 c33 27 74 58 91 70 l31 23 65 -37 c36 -20
86 -49 110 -65 25 -15 52 -28 61 -28 16 0 16 -9 -1 -117 l-18 -118 22 -17 c29
-22 57 -29 62 -15 2 7 11 98 20 202 9 105 23 243 31 308 19 162 19 197 -3 196
-10 -1 -85 -50 -168 -110z m89 -139 c-7 -72 -16 -135 -19 -140 -7 -12 -21 -6
-129 55 l-88 50 38 31 c58 47 198 142 205 138 3 -1 0 -62 -7 -134z"/>
<path d="M13036 14338 c-19 -39 -57 -93 -101 -146 -27 -33 -81 -102 -120 -153
-38 -50 -90 -114 -114 -141 -45 -51 -45 -62 -1 -72 22 -5 32 4 83 77 94 133
207 277 218 277 5 0 9 -12 9 -27 1 -100 54 -620 65 -631 4 -4 15 4 24 18 9 13
52 70 96 125 44 56 116 148 160 205 44 57 91 115 105 128 24 23 24 24 5 38
-27 20 -46 14 -70 -21 -40 -60 -258 -335 -262 -331 -2 2 -15 127 -28 277 -14
151 -28 298 -33 328 -7 53 -23 75 -36 49z"/>
<path d="M6854 14286 c-8 -20 10 -136 57 -375 22 -112 38 -205 35 -208 -2 -3
-40 11 -83 30 -138 63 -437 177 -460 177 -43 0 -26 -41 122 -280 60 -96 122
-201 138 -232 30 -60 53 -72 77 -43 10 12 -12 52 -120 225 -73 116 -129 214
-126 218 4 3 35 -8 69 -25 34 -18 103 -48 152 -68 50 -20 104 -42 120 -49 80
-35 176 -69 181 -63 9 9 -11 142 -52 341 -37 183 -39 199 -25 194 5 -1 82 -72
170 -156 168 -161 170 -162 219 -124 l22 17 -87 79 c-135 121 -314 287 -350
324 -34 35 -51 40 -59 18z"/>
<path d="M13547 13763 c-50 -54 -150 -157 -221 -230 l-129 -132 28 -25 c15
-14 33 -26 39 -26 6 1 24 17 39 38 16 20 109 121 208 224 188 195 195 207 148
236 -20 13 -27 7 -112 -85z"/>
<path d="M5753 12763 c-3 -8 -2 -42 3 -76 l9 -62 73 -3 72 -3 0 75 0 74 -37 6
c-65 9 -114 5 -120 -11z"/>
<path d="M14090 12700 l0 -81 78 3 77 3 3 35 c2 19 1 54 -3 77 l-6 43 -75 0
-74 0 0 -80z"/>
<path d="M14290 12699 l0 -79 75 0 76 0 -3 78 -3 77 -72 2 -73 1 0 -79z"/>
<path d="M5550 12711 c0 -90 1 -91 86 -91 l74 0 0 75 0 75 -80 0 -80 0 0 -59z"/>
<path d="M9093 12688 c-12 -13 -34 -45 -50 -73 -29 -50 -50 -88 -223 -415 -51
-96 -108 -204 -128 -240 -19 -36 -80 -150 -135 -255 -55 -104 -133 -253 -175
-330 -41 -77 -131 -245 -199 -374 -69 -129 -249 -467 -401 -750 -382 -714
-387 -725 -439 -829 -89 -180 -68 -247 107 -341 41 -22 111 -54 154 -71 149
-59 481 -130 681 -145 44 -4 96 -8 115 -9 62 -6 80 7 80 58 0 25 -4 47 -9 50
-5 3 -60 13 -122 21 -238 33 -438 67 -534 91 -177 45 -330 114 -369 167 -20
27 -20 28 -1 63 11 20 34 47 51 61 66 50 348 134 564 168 212 33 260 46 266
71 3 13 2 36 -3 51 -16 48 -43 46 -421 -27 -112 -22 -221 -40 -244 -40 -39 0
-40 1 -33 28 11 44 327 670 562 1112 28 52 116 219 196 370 491 931 748 1398
759 1379 2 -2 17 -31 34 -64 17 -33 68 -130 114 -215 155 -291 397 -745 528
-990 127 -240 187 -346 214 -383 12 -17 16 -17 51 -2 60 25 54 45 -94 334 -73
141 -135 261 -139 266 -4 6 -125 233 -270 505 -410 774 -414 780 -449 780 -10
0 -27 -10 -38 -22z"/>
<path d="M5803 12572 l-43 -3 0 -75 0 -74 80 0 81 0 -3 72 -3 73 -35 5 c-19 3
-54 4 -77 2z"/>
<path d="M14102 12571 c-6 -3 -12 -38 -13 -76 l-3 -70 74 -3 c40 -2 77 1 82 6
5 5 6 40 2 81 l-7 72 -63 -2 c-34 -1 -67 -5 -72 -8z"/>
<path d="M5560 12495 c0 -86 3 -89 101 -83 l54 3 -2 35 c-1 19 -2 54 -2 78
l-1 42 -75 0 -75 0 0 -75z"/>
<path d="M14292 12493 l3 -78 40 -3 c21 -2 54 -1 72 3 l33 6 0 74 0 75 -75 0
-76 0 3 -77z"/>
<path d="M11035 11994 c-209 -17 -413 -69 -582 -149 -178 -84 -367 -216 -423
-296 -19 -26 -20 -30 -6 -58 30 -56 23 -59 223 80 254 177 441 251 708 280
453 49 892 -106 1209 -426 161 -162 319 -434 355 -613 20 -97 17 -98 -92 -51
-289 124 -510 178 -866 214 -426 42 -871 25 -1196 -46 -137 -30 -128 -24 -122
-76 2 -25 9 -49 15 -55 8 -8 55 -4 159 11 263 40 384 52 588 57 557 17 1027
-62 1337 -223 126 -66 197 -124 228 -188 l21 -44 -22 -51 c-41 -96 -155 -175
-359 -250 -89 -33 -266 -83 -335 -95 -68 -11 -175 -46 -191 -62 -29 -30 16
-97 60 -88 11 2 48 7 81 10 130 14 392 93 625 189 l85 34 3 -22 c5 -40 -58
-218 -123 -343 -149 -287 -318 -455 -642 -637 -107 -61 -116 -72 -87 -114 25
-36 70 -28 192 33 319 159 603 485 732 838 68 185 100 356 100 539 0 454 -170
857 -491 1164 -282 268 -638 419 -1039 437 -52 3 -117 3 -145 1z"/>
<path d="M4875 11408 c-38 -154 -43 -233 -16 -276 26 -41 73 -70 129 -78 57
-8 82 4 129 64 21 26 44 47 51 44 15 -5 15 3 2 28 -8 16 -7 18 4 14 11 -4 17
12 27 65 7 39 18 76 25 82 9 7 38 4 98 -11 144 -35 136 -27 120 -105 -17 -79
-35 -116 -70 -144 -46 -36 -106 -24 -155 31 -9 10 -20 14 -24 10 -5 -4 -5 1
-2 11 4 11 3 16 -3 12 -28 -17 6 -107 49 -129 46 -24 100 -20 146 12 44 31 73
96 101 225 22 107 29 99 -104 129 -64 16 -182 46 -262 68 -80 22 -156 40 -170
40 -15 0 -31 5 -36 10 -8 8 -19 -24 -39 -102z m192 0 c70 -17 130 -33 132 -34
2 -2 -2 -18 -9 -35 -8 -18 -13 -53 -12 -78 0 -35 -1 -40 -7 -21 -7 24 -8 24
-16 -10 -17 -75 -53 -100 -140 -100 -69 0 -100 14 -120 55 -32 69 -6 255 36
255 5 0 66 -14 136 -32z"/>
<path d="M14975 11460 c-534 -152 -487 -135 -473 -168 7 -15 13 -28 13 -30 1
-1 42 10 91 24 49 14 103 30 119 34 287 75 395 109 395 127 0 24 -13 43 -29
42 -9 0 -61 -13 -116 -29z"/>
<path d="M15095 11058 c-103 -15 -438 -68 -477 -74 -43 -7 -44 -10 -22 -42 13
-20 22 -22 66 -17 27 2 64 7 81 10 18 4 40 7 49 9 10 1 20 4 23 7 3 3 18 4 35
1 33 -5 36 -11 44 -97 2 -27 12 -104 21 -169 11 -80 13 -121 6 -125 -6 -4 -57
-13 -113 -20 -122 -15 -148 -25 -148 -59 0 -25 1 -25 66 -18 36 4 102 13 147
20 45 8 143 24 217 35 74 12 150 24 168 27 29 4 33 8 30 32 -3 26 -5 27 -58
24 -50 -2 -197 -27 -226 -39 -22 -8 -50 35 -52 79 -5 92 -35 259 -44 246 -6
-8 -8 -1 -4 22 4 19 13 40 21 46 8 6 76 20 152 32 75 12 141 26 145 30 13 13
-22 52 -45 51 -12 -1 -49 -6 -82 -11z"/>
<path d="M4732 10683 c-26 -174 -29 -253 -8 -253 10 0 16 20 21 68 10 104 34
254 40 260 8 8 248 -27 258 -37 4 -4 3 -46 -3 -92 -13 -104 -13 -189 -1 -189
16 0 20 15 22 81 1 63 21 185 32 196 3 3 18 5 34 4 15 0 40 -1 56 -1 15 -1 27
-5 27 -10 0 -6 7 -10 15 -10 8 0 15 4 15 9 0 5 11 8 24 7 13 0 22 -4 19 -8 -2
-5 4 -8 13 -8 16 0 16 -11 9 -127 -4 -71 -8 -140 -9 -155 0 -16 -7 -28 -13
-28 -7 0 -13 -5 -13 -11 0 -6 12 -9 28 -7 26 3 27 5 27 60 0 31 3 54 6 52 9
-5 20 121 12 141 -4 12 -3 16 4 12 12 -8 28 103 16 114 -4 4 -46 12 -93 18
-47 6 -173 22 -280 36 -107 14 -204 25 -216 25 -19 0 -22 -12 -42 -147z m335
-15 c-3 -8 -6 -5 -6 6 -1 11 2 17 5 13 3 -3 4 -12 1 -19z"/>
<path d="M10013 10600 c-32 -15 -123 -65 -203 -112 -147 -86 -578 -334 -660
-380 -25 -14 -115 -66 -200 -115 -85 -49 -178 -102 -207 -118 -29 -15 -68 -42
-87 -60 l-36 -33 0 -824 0 -825 233 -138 c326 -194 309 -184 652 -380 171 -98
341 -193 379 -212 39 -19 86 -45 105 -57 91 -56 83 -57 253 35 335 181 975
557 1230 723 l48 31 0 835 0 835 -113 68 c-61 38 -141 86 -177 109 -190 117
-776 445 -1092 610 l-68 36 -57 -28z m143 -168 c189 -92 666 -359 924 -518
184 -113 220 -138 220 -149 0 -19 -78 -66 -605 -370 -154 -89 -334 -193 -400
-232 -66 -39 -143 -82 -171 -96 l-50 -25 -50 27 c-27 16 -134 78 -239 138
-104 61 -282 163 -395 228 -184 106 -269 155 -492 287 -38 22 -68 44 -68 49 0
5 23 20 51 34 28 15 117 65 197 112 421 248 959 552 978 552 11 1 56 -16 100
-37z m-1303 -843 c67 -34 627 -353 797 -454 58 -34 149 -88 202 -119 53 -31
110 -67 125 -80 l28 -24 2 -359 c3 -416 12 -675 23 -693 10 -17 69 -15 85 2
16 16 24 278 25 726 l0 312 45 33 c246 174 1162 688 1202 673 13 -6 15 -78 12
-696 -4 -596 -6 -691 -19 -704 -58 -57 -914 -560 -1286 -754 -27 -14 -32 -11
-389 195 -533 308 -905 521 -917 525 -24 8 -38 360 -34 888 3 476 7 560 31
560 3 0 34 -14 68 -31z"/>
<path d="M10140 10220 c0 -17 23 -60 32 -60 5 0 6 -5 2 -11 -3 -6 -3 -14 2
-18 5 -3 15 -19 22 -34 7 -17 17 -25 24 -21 7 4 8 3 4 -5 -5 -7 17 -55 50
-114 106 -186 110 -203 72 -266 -78 -131 -183 -298 -194 -312 -8 -8 -14 -26
-14 -38 0 -19 4 -21 23 -15 12 4 24 10 27 14 3 4 22 13 42 20 20 8 35 17 33
21 -3 3 9 9 26 13 20 4 28 10 23 17 -4 7 -3 9 4 5 12 -7 82 23 82 36 0 4 7 8
16 8 9 0 12 5 8 12 -5 8 -2 9 10 5 20 -8 141 65 129 78 -5 4 -2 5 5 1 13 -8
261 139 292 173 8 9 28 23 43 31 18 9 24 16 16 19 -7 2 -18 8 -24 13 -53 44
-250 150 -260 140 -5 -4 -6 -2 -2 4 6 10 -214 149 -229 144 -4 -1 -10 3 -13 8
-11 17 -251 144 -251 132z m315 -218 c-3 -3 -11 0 -18 7 -9 10 -8 11 6 5 10
-3 15 -9 12 -12z m-258 -614 c-3 -8 -6 -5 -6 6 -1 11 2 17 5 13 3 -3 4 -12 1
-19z m-17 -22 c0 -2 -7 -7 -16 -10 -8 -3 -12 -2 -9 4 6 10 25 14 25 6z"/>
<path d="M15226 10279 c1 -13 3 -27 3 -30 1 -3 9 -14 19 -25 40 -45 55 -203
27 -285 -38 -107 -83 -144 -213 -173 -142 -32 -268 18 -322 128 -24 51 -31 57
-23 24 4 -18 2 -20 -6 -8 -16 24 -20 8 -8 -34 17 -55 88 -130 155 -163 47 -23
70 -28 132 -28 41 0 89 4 105 9 l30 9 -25 8 c-21 7 -19 8 9 4 62 -9 135 51
183 152 28 60 30 68 26 170 -3 93 -7 116 -30 163 -15 30 -35 66 -46 79 l-19
23 3 -23z m81 -171 c-3 -8 -6 -5 -6 6 -1 11 2 17 5 13 3 -3 4 -12 1 -19z"/>
<path d="M14762 10247 c-31 -32 -41 -61 -24 -71 13 -8 72 53 72 74 0 32 -15
31 -48 -3z"/>
<path d="M4805 10263 c-27 -7 -75 -42 -75 -54 0 -6 -7 -17 -15 -25 -19 -20
-45 -108 -45 -155 0 -56 36 -144 71 -173 42 -36 104 -51 150 -37 44 13 101 69
122 120 78 184 102 233 118 241 26 15 82 12 105 -5 12 -8 29 -31 39 -52 16
-33 19 -35 26 -18 19 50 7 -63 -12 -117 -17 -44 -31 -66 -60 -86 -41 -29 -49
-49 -23 -59 17 -6 84 52 84 73 0 7 6 14 13 16 8 3 13 34 15 94 4 87 3 90 -30
139 -46 68 -98 89 -169 66 -26 -9 -52 -21 -58 -26 -17 -19 -68 -120 -84 -170
-10 -28 -32 -73 -50 -100 -32 -49 -33 -50 -90 -53 -52 -3 -60 0 -86 26 -49 49
-62 122 -36 209 15 51 37 73 98 100 17 7 27 20 27 33 0 21 -1 21 -35 13z m248
-113 c-10 -11 -19 -20 -21 -20 -1 0 2 9 8 20 6 11 15 20 20 20 6 0 2 -9 -7
-20z m-26 -52 c-3 -8 -6 -5 -6 6 -1 11 2 17 5 13 3 -3 4 -12 1 -19z"/>
<path d="M14710 10170 c0 -5 5 -10 11 -10 5 0 7 5 4 10 -3 6 -8 10 -11 10 -2
0 -4 -4 -4 -10z"/>
<path d="M14686 10125 c-3 -9 -6 -22 -5 -28 0 -7 5 -1 10 12 5 13 8 26 5 28
-2 2 -6 -3 -10 -12z"/>
<path d="M14680 9985 c0 -32 3 -55 7 -51 7 7 5 98 -3 105 -2 2 -4 -22 -4 -54z"/>
<path d="M5306 9566 c-4 -29 -4 -65 -1 -79 4 -14 2 -28 -4 -31 -6 -4 -84 -16
-173 -27 -90 -11 -217 -28 -283 -37 l-120 -17 3 -30 c2 -16 5 -31 6 -33 2 -1
88 9 192 23 104 14 228 30 277 36 48 7 87 17 87 22 0 6 7 2 15 -9 8 -10 15
-30 15 -43 0 -14 5 -64 11 -113 10 -76 14 -88 31 -88 11 0 16 5 13 10 -4 6
-11 7 -17 4 -7 -4 -8 -2 -4 5 4 6 12 8 18 5 8 -5 9 2 5 22 -3 16 -14 98 -23
182 -10 83 -21 152 -24 152 -3 0 -4 22 -3 50 2 67 -13 64 -21 -4z m41 -248
c-3 -8 -6 -5 -6 6 -1 11 2 17 5 13 3 -3 4 -12 1 -19z m23 -128 c0 -5 -5 -10
-11 -10 -5 0 -7 5 -4 10 3 6 8 10 11 10 2 0 4 -4 4 -10z"/>
<path d="M14654 9489 c-8 -14 31 -25 147 -44 276 -44 374 -64 364 -74 -4 -3
-10 -6 -15 -6 -15 0 -192 -123 -340 -235 -80 -61 -153 -113 -163 -117 -10 -3
-16 -12 -13 -20 3 -8 1 -11 -4 -8 -12 7 -54 -14 -46 -23 4 -3 30 -9 59 -13 29
-4 158 -26 287 -48 258 -45 274 -47 268 -28 -4 11 -106 30 -382 72 -54 8 -101
17 -105 20 -3 4 6 16 22 27 15 11 24 25 20 31 -4 6 0 8 10 4 19 -7 71 35 59
48 -4 5 -1 5 5 1 20 -11 420 272 415 293 -1 7 2 10 8 6 5 -3 17 -2 27 3 15 9
15 10 -3 16 -10 3 -145 26 -299 51 -154 25 -288 47 -297 49 -10 2 -21 0 -24
-5z"/>
<path d="M5410 8630 c-52 -20 -44 -17 -182 -66 -58 -21 -104 -43 -101 -48 4
-5 1 -6 -4 -3 -6 4 -48 -7 -94 -24 -46 -17 -92 -33 -101 -36 -27 -8 -21 -19
10 -18 39 2 138 32 207 65 33 15 77 33 98 40 20 6 37 16 37 21 0 5 3 8 8 7 16
-4 72 14 72 23 0 6 5 7 11 4 5 -4 19 1 29 10 11 10 20 12 24 6 4 -5 -28 -48
-71 -94 -43 -45 -103 -112 -134 -148 -31 -35 -90 -103 -133 -151 -85 -97 -86
-92 19 -101 28 -3 120 -14 205 -26 85 -12 185 -24 223 -27 80 -7 88 -23 23
-50 -24 -10 -42 -23 -39 -28 4 -5 2 -6 -4 -3 -9 6 -96 -23 -263 -88 -47 -18
-93 -36 -103 -39 -17 -6 -17 -8 3 -37 16 -21 27 -28 39 -24 9 4 127 49 263
101 286 108 288 109 288 134 0 14 -9 21 -37 25 -21 4 -81 15 -133 25 -52 10
-133 21 -180 25 -126 9 -300 42 -283 54 14 10 233 259 316 359 105 126 101
156 -13 112z"/>
<path d="M15005 8578 c-49 -5 -142 -16 -205 -24 -63 -9 -162 -20 -220 -25
-117 -10 -150 -16 -150 -28 0 -9 121 -125 200 -192 30 -26 98 -85 150 -133 52
-47 101 -85 110 -83 8 1 14 -3 13 -10 -1 -6 4 -16 11 -22 10 -9 15 -8 19 3 4
11 1 13 -10 9 -10 -4 -14 -2 -10 4 3 5 -18 34 -48 63 -40 39 -55 62 -55 82 0
15 4 29 9 32 11 7 59 153 67 206 7 45 10 46 142 56 81 6 92 9 92 26 0 15 -5
17 -26 12 -19 -5 -25 -4 -20 5 4 6 18 11 32 11 13 0 24 5 24 10 0 6 -8 9 -17
8 -10 0 -58 -5 -108 -10z m-124 -77 c-6 -10 -7 -22 -3 -26 4 -5 2 -5 -4 -2 -7
4 -25 -38 -50 -115 -22 -67 -45 -123 -51 -125 -6 -2 -54 34 -107 81 -53 47
-114 98 -136 112 -22 15 -39 28 -38 30 2 1 75 10 163 19 88 9 168 21 179 27
13 7 21 7 26 -2 5 -8 9 -7 13 4 4 9 9 16 12 16 3 0 1 -8 -4 -19z m-406 -1 c-3
-5 -10 -10 -16 -10 -5 0 -9 5 -9 10 0 6 7 10 16 10 8 0 12 -4 9 -10z"/>
<path d="M14263 7979 c-55 -35 -171 -239 -158 -279 3 -9 33 -29 68 -44 34 -14
152 -73 262 -129 181 -94 202 -102 218 -89 36 31 21 47 -93 100 -61 29 -113
59 -117 68 -10 26 29 91 62 102 16 6 86 18 155 27 145 18 161 22 177 44 15 22
5 35 -15 19 -15 -12 -16 -11 -3 4 7 10 17 16 21 13 7 -4 30 17 45 44 11 19
-34 5 -60 -19 -11 -10 -47 -25 -80 -34 -73 -18 -235 -39 -243 -31 -3 3 -5 22
-4 43 3 92 -15 124 -90 163 -48 25 -105 24 -145 -2z m-28 -69 l-7 -21 34 21
c92 56 198 -12 198 -127 0 -34 -54 -163 -68 -163 -4 0 -41 19 -82 43 -41 23
-95 51 -120 62 -25 10 -46 20 -48 21 -2 1 4 13 12 27 9 13 14 31 11 40 -4 8
-2 18 4 22 7 3 8 0 5 -9 -3 -9 -4 -16 0 -16 7 0 37 57 34 67 -3 10 20 53 28
53 3 0 2 -9 -1 -20z"/>
<path d="M5830 7609 c-173 -19 -526 -62 -539 -66 -10 -2 -11 -7 -4 -14 7 -7
42 -7 109 0 115 12 99 22 172 -108 26 -46 57 -94 69 -108 13 -13 23 -32 23
-42 0 -10 -27 -56 -59 -102 -59 -84 -67 -118 -25 -102 16 6 17 5 6 -9 -7 -9
-9 -19 -4 -22 5 -3 37 36 70 87 33 50 83 124 111 162 114 159 211 305 211 320
0 17 -19 18 -140 4z m50 -33 c0 -8 -17 -35 -38 -59 -21 -24 -64 -85 -96 -136
-47 -74 -61 -89 -72 -80 -8 6 -12 15 -9 19 7 11 -20 31 -30 22 -5 -4 -5 -1 -1
5 7 13 -62 140 -88 163 -31 25 -18 37 52 44 70 7 275 33 280 35 1 0 2 -5 2
-13z"/>
<path d="M6090 7354 c0 -9 29 -56 65 -104 36 -48 65 -92 65 -97 0 -9 -34 -36
-295 -233 -152 -115 -156 -118 -148 -149 8 -36 9 -36 40 -16 79 50 132 97 126
113 -4 13 -3 14 5 3 8 -11 33 4 123 74 63 49 132 104 153 123 39 34 40 35 55
15 9 -11 45 -57 79 -101 56 -71 66 -80 78 -67 13 12 6 25 -53 99 -37 46 -115
145 -172 220 -57 75 -108 136 -112 136 -5 0 -9 -7 -9 -16z m-60 -420 c-8 -8
-23 -20 -34 -25 -13 -7 -9 -1 9 15 34 29 43 33 25 10z m-200 -145 c-6 -10 -13
-19 -16 -19 -2 0 0 8 5 19 6 10 7 22 3 26 -4 5 -1 5 6 1 9 -5 9 -12 2 -27z
m-20 11 c0 -5 -5 -10 -11 -10 -5 0 -7 5 -4 10 3 6 8 10 11 10 2 0 4 -4 4 -10z"/>
<path d="M13777 7203 c-4 -3 -7 -12 -7 -19 0 -12 267 -239 346 -294 31 -21 33
-25 17 -31 -10 -4 -47 -8 -83 -8 -36 -1 -123 -8 -195 -16 -71 -8 -168 -17
-215 -20 -47 -3 -114 -9 -148 -13 l-64 -7 86 -72 c47 -40 87 -73 89 -73 1 0
29 -25 62 -56 33 -31 94 -84 135 -117 41 -34 81 -67 88 -74 15 -15 29 -17 36
-5 7 11 -43 58 -169 160 -55 44 -118 97 -140 117 -22 19 -46 40 -53 46 -25 20
-1 26 135 33 76 4 194 13 263 21 69 8 164 17 213 20 l87 7 -27 21 c-16 11 -50
41 -78 67 -46 43 -101 90 -230 195 -63 51 -128 108 -136 118 -3 4 -8 4 -12 0z
m-127 -573 c0 -5 -2 -10 -4 -10 -3 0 -8 5 -11 10 -3 6 -1 10 4 10 6 0 11 -4
11 -10z m225 -190 c3 -6 -1 -7 -9 -4 -18 7 -21 14 -7 14 6 0 13 -4 16 -10z"/>
<path d="M6368 6613 c-243 -244 -241 -242 -225 -277 7 -14 15 -26 18 -26 12 0
164 162 161 171 -1 6 1 8 6 5 5 -3 22 8 37 25 21 25 29 28 36 18 5 -8 9 -10 9
-4 0 5 7 0 15 -12 9 -12 22 -20 29 -17 9 3 13 -1 13 -13 -1 -11 4 -17 13 -15
8 2 12 0 7 -4 -9 -10 43 -65 55 -58 5 3 7 1 6 -4 -3 -11 42 -56 66 -65 9 -4
16 -14 16 -22 0 -12 6 -15 19 -10 11 3 22 1 26 -4 4 -7 -1 -8 -12 -4 -17 6
-17 5 1 -15 18 -21 18 -22 -63 -98 -116 -109 -145 -148 -131 -174 6 -11 16
-20 23 -20 7 0 46 34 87 75 62 63 72 77 60 86 -12 9 -12 10 3 5 14 -4 50 27
150 130 73 75 133 141 135 148 1 6 -6 21 -17 33 l-20 21 -78 -80 c-43 -45 -86
-90 -96 -101 -19 -19 -19 -19 -41 2 -12 12 -26 18 -31 14 -4 -5 -5 -3 -2 4 4
7 -40 55 -108 119 -63 59 -115 112 -115 118 0 6 36 45 79 87 98 94 107 110 83
139 -17 21 -18 21 -214 -177z m203 134 c-10 -9 -11 -8 -5 6 3 10 9 15 12 12 3
-3 0 -11 -7 -18z m-140 -140 c-10 -9 -11 -8 -5 6 3 10 9 15 12 12 3 -3 0 -11
-7 -18z"/>
<path d="M13181 6566 c-13 -15 67 -109 255 -303 54 -56 95 -99 89 -96 -5 3 6
-10 24 -30 37 -39 70 -47 90 -23 10 12 5 23 -24 55 -21 23 -42 38 -48 34 -6
-3 -7 -1 -3 6 5 7 -15 36 -51 74 -33 34 -102 106 -153 160 -51 53 -99 106
-107 117 -16 23 -55 26 -72 6z"/>
<path d="M7028 6210 c-40 -39 -40 -41 -36 -102 3 -57 11 -75 73 -178 60 -99
69 -122 70 -163 0 -43 -4 -52 -37 -83 -24 -22 -48 -34 -65 -34 -70 1 -182 82
-204 147 -6 18 -8 50 -4 71 5 30 2 42 -14 56 -19 17 -20 17 -26 -26 -7 -46 7
-119 28 -146 63 -80 158 -136 233 -136 41 0 59 5 89 28 59 45 77 82 71 144 -5
58 -50 147 -68 136 -7 -4 -8 -2 -4 4 4 7 -14 44 -39 83 -25 39 -46 78 -47 87
-3 45 4 71 28 97 23 25 30 27 76 22 60 -7 122 -47 151 -95 15 -25 22 -30 28
-20 13 19 11 0 -2 -23 -14 -27 -2 -99 17 -99 8 0 17 7 21 16 8 20 -15 124 -28
124 -5 0 -9 6 -9 13 0 22 -62 74 -113 96 -28 12 -70 21 -99 21 -45 0 -54 -4
-90 -40z"/>
<path d="M12713 6175 c-50 -29 -257 -167 -263 -175 -3 -4 -11 -9 -17 -11 -8
-3 2 -26 30 -66 23 -34 57 -87 76 -117 18 -31 38 -53 44 -49 6 3 7 1 3 -5 -7
-12 172 -291 187 -292 5 0 5 4 2 10 -3 5 0 7 8 4 8 -3 23 6 34 20 11 14 24 22
28 18 4 -4 6 0 3 8 -3 9 -15 14 -29 13 -19 -2 -30 7 -54 49 -16 28 -49 78 -72
110 -42 57 -51 78 -35 78 5 0 18 9 30 20 12 11 25 21 29 22 18 2 52 31 47 39
-3 5 2 6 10 3 8 -3 37 10 65 28 51 34 62 48 36 48 -8 0 -15 -4 -15 -10 0 -5
-6 -7 -12 -5 -7 3 -58 -24 -113 -59 -97 -63 -100 -65 -117 -46 -10 11 -18 22
-18 25 0 3 -15 26 -34 52 -18 27 -41 60 -50 75 l-17 26 110 72 c62 40 108 77
104 83 -3 5 -2 7 3 4 11 -6 74 22 74 33 0 18 -41 16 -77 -5z m-18 -45 c-3 -5
-12 -10 -18 -10 -7 0 -6 4 3 10 19 12 23 12 15 0z"/>
<path d="M12276 5877 c3 -9 -4 -13 -26 -11 -16 1 -30 -2 -30 -6 0 -9 -44 -26
-77 -29 -7 0 -12 -7 -10 -13 1 -8 -7 -12 -23 -11 -23 3 -24 2 -7 -11 17 -13
16 -14 -3 -19 -11 -3 -23 0 -27 5 -4 7 -1 8 7 3 8 -5 11 -4 6 3 -4 6 -13 9
-21 6 -8 -4 -13 -10 -10 -14 3 -4 -2 -11 -11 -14 -8 -3 -12 -2 -9 4 3 5 -7 5
-25 -1 -16 -6 -33 -15 -36 -21 -4 -6 2 -5 14 1 14 7 23 8 27 1 3 -5 -1 -10 -9
-10 -9 0 -16 -5 -16 -10 0 -6 6 -10 13 -9 26 3 36 -2 42 -23 13 -44 49 -118
57 -118 4 0 8 -9 8 -21 0 -11 4 -18 9 -14 6 3 10 -3 9 -12 0 -10 15 -48 34
-85 28 -55 37 -65 48 -55 10 10 11 8 3 -7 -8 -14 -1 -37 31 -102 22 -46 46
-84 52 -84 6 0 18 10 26 23 13 20 10 30 -37 125 -28 56 -55 99 -60 95 -4 -4
-5 -3 -2 3 7 12 -22 80 -97 233 -20 41 -36 76 -36 78 0 1 27 16 59 33 33 16
65 38 70 47 9 16 12 16 22 3 9 -13 10 -13 6 2 -5 13 0 16 21 15 18 -1 27 4 30
16 2 10 -3 17 -12 17 -9 0 -13 -6 -10 -13z"/>
<path d="M7935 5758 c-8 -26 -48 -112 -141 -304 -103 -214 -117 -264 -73 -264
16 0 41 44 123 213 121 246 156 324 156 343 0 8 -12 19 -26 24 -33 13 -32 13
-39 -12z"/>
<path d="M13066 5702 c-3 -5 -38 -29 -78 -52 -101 -60 -152 -100 -140 -112 7
-7 25 -2 51 13 36 20 44 29 43 49 0 3 10 6 24 6 34 2 115 56 109 73 -4 9 0 11
11 7 10 -4 14 -1 12 6 -6 16 -25 22 -32 10z m-66 -72 c0 -5 -5 -10 -11 -10 -5
0 -7 5 -4 10 3 6 8 10 11 10 2 0 4 -4 4 -10z"/>
<path d="M11875 5669 c-16 -10 -36 -17 -42 -14 -7 2 -13 0 -13 -5 0 -6 -7 -10
-16 -10 -8 0 -13 -4 -9 -9 5 -9 116 36 133 53 13 14 -26 3 -53 -15z"/>
<path d="M8276 5632 c-8 -13 -88 -245 -133 -387 -20 -60 -40 -120 -45 -131 -6
-12 -7 -32 -2 -45 4 -13 7 -28 6 -32 -1 -5 2 -6 8 -2 5 3 10 27 10 53 0 28 4
42 8 34 6 -9 12 -1 20 25 7 21 28 88 47 148 19 61 35 116 35 122 0 6 9 30 19
53 l19 43 21 -43 c12 -24 21 -50 21 -57 0 -8 5 -11 12 -7 6 4 8 3 4 -4 -10
-16 12 -64 26 -56 7 4 8 3 4 -4 -8 -13 116 -265 146 -299 12 -12 17 -27 13
-34 -5 -8 -4 -10 3 -5 7 4 12 2 12 -4 0 -6 5 -8 13 -4 9 6 9 5 0 -7 -10 -13
-8 -25 12 -67 25 -51 45 -67 45 -36 0 9 -5 12 -12 8 -8 -4 -7 0 2 12 26 33 36
57 51 114 7 30 20 65 28 78 8 13 14 45 15 73 0 27 5 49 10 49 4 0 6 7 2 15 -3
8 -1 15 3 15 5 0 11 -6 14 -12 2 -7 6 -1 9 15 4 22 3 25 -8 16 -17 -14 -19 2
-2 19 6 6 12 26 13 44 1 18 7 44 13 58 l11 25 1 -25 c0 -20 3 -22 10 -10 4 9
5 31 0 50 -4 19 -8 28 -9 19 -1 -8 -10 -34 -21 -57 -11 -22 -20 -52 -20 -66 0
-13 -3 -26 -7 -28 -14 -5 -85 -237 -77 -249 5 -8 3 -9 -6 -4 -9 6 -11 -1 -6
-26 3 -19 3 -27 -2 -19 -4 8 -15 16 -24 16 -20 2 -24 -11 -8 -21 6 -4 7 -11 4
-17 -10 -16 -26 19 -19 42 5 16 -44 155 -65 185 -4 6 -34 60 -65 120 -32 61
-61 112 -64 115 -3 3 -7 14 -9 24 -5 30 -33 67 -45 59 -5 -3 -7 -2 -4 4 4 6
-2 34 -12 63 -10 29 -21 48 -25 42z m288 -668 c3 -8 2 -12 -4 -9 -6 3 -10 10
-10 16 0 14 7 11 14 -7z m30 -18 c-3 -8 -13 -17 -22 -21 -13 -5 -13 -2 3 15
21 24 26 25 19 6z"/>
<path d="M11655 5598 c-3 -7 6 -45 20 -83 21 -58 25 -64 22 -32 -2 21 1 37 8
37 5 0 3 6 -5 13 -8 7 -14 21 -12 33 4 26 -25 54 -33 32z"/>
<path d="M11261 5474 c-1 -6 -12 -9 -26 -6 -28 5 -31 -6 -16 -54 141 -439 136
-429 210 -466 39 -20 70 -28 106 -28 60 0 158 27 150 40 -3 6 0 7 8 5 17 -7
86 61 103 102 17 40 19 168 3 140 -6 -11 -14 -46 -17 -79 -5 -56 -8 -64 -51
-104 -122 -116 -290 -88 -332 54 -9 30 -15 39 -22 30 -6 -10 -7 -9 -4 4 6 19
-19 109 -32 118 -6 3 -12 23 -15 45 -8 69 -18 98 -27 83 -6 -8 -9 1 -9 27 -1
36 -27 117 -29 89z"/>
<path d="M8772 5450 c0 -14 2 -19 5 -12 2 6 2 18 0 25 -3 6 -5 1 -5 -13z"/>
<path d="M11707 5448 c-3 -10 2 -44 13 -75 22 -67 25 -54 7 32 -9 40 -15 54
-20 43z"/>
<path d="M11069 5417 c16 -20 8 -22 -19 -5 -15 10 -32 10 -78 0 -32 -7 -70
-12 -85 -12 -15 0 -27 -4 -27 -9 0 -4 -27 -11 -60 -15 -33 -4 -62 -11 -64 -15
-3 -4 7 -7 22 -5 15 2 19 1 10 -2 -24 -7 -23 -24 1 -24 14 0 20 -10 25 -47 7
-53 28 -173 52 -298 8 -44 17 -99 20 -121 10 -85 18 -99 54 -102 28 -3 32 -1
26 14 -4 10 -11 52 -17 93 -15 111 -68 416 -75 436 -4 9 -1 27 6 41 11 20 21
24 64 25 28 1 62 5 76 10 23 8 23 8 -5 5 -17 -3 -37 -1 -45 5 -11 6 -7 9 15
10 41 3 45 3 88 -6 34 -7 39 -5 35 10 -1 10 -10 21 -18 23 -13 5 -13 3 -1 -11z"/>
<path d="M9070 5390 c0 -5 5 -10 11 -10 5 0 7 5 4 10 -3 6 -8 10 -11 10 -2 0
-4 -4 -4 -10z"/>
<path d="M9001 5354 c-88 -74 -50 -205 80 -272 164 -86 196 -122 180 -207 -11
-57 -24 -72 -74 -86 -40 -11 -130 -5 -171 11 -35 13 -72 57 -85 100 -16 54
-61 77 -61 31 0 -8 12 -28 28 -44 15 -17 21 -27 15 -23 -22 12 -14 -10 12 -38
37 -40 103 -65 187 -72 62 -6 82 -3 120 13 69 31 105 100 93 180 -8 53 -60
108 -152 162 -111 66 -160 107 -165 141 -3 17 1 38 8 48 8 9 13 22 14 27 0 6
-4 4 -9 -4 -5 -7 -14 -10 -20 -6 -8 4 -2 16 18 36 38 36 24 38 -18 3z m-91
-434 c0 -5 -7 -7 -15 -4 -8 4 -15 8 -15 10 0 2 7 4 15 4 8 0 15 -4 15 -10z"/>
<path d="M9273 5344 c0 -8 9 -14 19 -14 10 0 18 -4 18 -10 0 -5 -4 -10 -9 -10
-5 0 -1 -16 7 -35 20 -43 26 -38 17 14 -4 25 -15 45 -29 54 -19 13 -23 13 -23
1z"/>
<path d="M10630 5335 c-7 -8 -20 -15 -29 -15 -14 0 -14 2 -1 10 11 7 6 9 -17
7 -19 -1 -33 -7 -33 -15 0 -7 -4 -10 -10 -7 -5 3 -10 1 -10 -6 0 -8 12 -9 43
-4 59 10 79 13 102 14 15 1 17 3 6 10 -11 7 -11 9 0 14 8 3 2 6 -12 6 -15 1
-32 -6 -39 -14z"/>
<path d="M10700 5340 c0 -5 10 -10 23 -10 18 0 19 2 7 10 -19 13 -30 13 -30 0z"/>
<path d="M10277 5260 c3 -30 7 -84 9 -120 2 -36 6 -81 8 -100 3 -19 8 -104 12
-187 6 -136 9 -153 25 -158 32 -10 39 4 39 78 0 93 -29 539 -35 546 -3 2 -5
-1 -5 -7 0 -7 -9 -12 -21 -12 -16 0 -19 -4 -14 -20 3 -11 2 -20 -4 -20 -5 0
-12 12 -14 28 -3 15 -2 2 0 -28z"/>
<path d="M9534 5298 c8 -4 57 -9 108 -11 52 -2 100 -7 107 -12 10 -6 12 -29 7
-99 -3 -50 -6 -156 -7 -236 -1 -80 -5 -169 -9 -198 l-7 -53 36 3 36 3 6 130
c4 72 7 200 8 286 1 170 8 192 50 169 26 -13 211 -9 211 5 -1 6 -35 9 -88 7
-48 -1 -94 0 -102 4 -23 9 -373 11 -356 2z"/>
<path d="M9343 5257 c0 -20 5 -34 9 -31 11 7 10 35 -1 53 -6 10 -9 3 -8 -22z"/>
<path d="M11760 5271 c0 -12 5 -21 10 -21 6 0 10 6 10 14 0 8 -4 18 -10 21 -5
3 -10 -3 -10 -14z"/>
<path d="M8075 5057 c-4 -10 -5 -21 -1 -24 10 -10 18 4 13 24 -4 17 -4 17 -12
0z"/>
</g>
</svg>
